<svg xmlns="http://www.w3.org/2000/svg" viewBox="0 0 480 360" width="480" height="360" role="img" aria-hidden="true">
  <defs>
    <pattern id="dots" width="24" height="24" patternUnits="userSpaceOnUse">
      <circle cx="1.5" cy="1.5" r="1.5" fill="#27272A" />
    </pattern>
  </defs>
  <rect width="480" height="360" rx="28" fill="#151515" />
  <rect width="480" height="360" rx="28" fill="url(#dots)" />
  <g stroke="#22C55E" stroke-width="2.5" stroke-linecap="round" fill="none" opacity="0.9">
    <path d="M24,44 L24,24 L44,24" />
    <path d="M436,24 L456,24 L456,44" />
    <path d="M24,316 L24,336 L44,336" />
    <path d="M436,336 L456,336 L456,316" />
  </g>
  <g>
    <rect x="150" y="146" width="180" height="112" rx="14" fill="#52525B" />
    <rect x="196" y="116" width="58" height="30" rx="8" fill="#52525B" />
    <circle cx="240" cy="204" r="40" fill="#0A0A0A" />
    <circle cx="240" cy="204" r="40" fill="none" stroke="#27272A" stroke-width="6" />
    <circle cx="240" cy="204" r="22" fill="none" stroke="#22C55E" stroke-width="4" opacity="0.9" />
    <circle cx="240" cy="204" r="9" fill="#27272A" />
    <circle cx="300" cy="166" r="5" fill="#4ADE80" />
  </g>
</svg>
