<svg xmlns="http://www.w3.org/2000/svg" viewBox="0 0 480 360" width="480" height="360" role="img" aria-hidden="true">
  <defs>
    <pattern id="dots" width="24" height="24" patternUnits="userSpaceOnUse">
      <circle cx="1.5" cy="1.5" r="1.5" fill="#27272A" />
    </pattern>
  </defs>
  <rect width="480" height="360" rx="28" fill="#151515" />
  <rect width="480" height="360" rx="28" fill="url(#dots)" />
  <g stroke="#22C55E" stroke-width="2.5" stroke-linecap="round" fill="none" opacity="0.9">
    <path d="M24,44 L24,24 L44,24" />
    <path d="M436,24 L456,24 L456,44" />
    <path d="M24,316 L24,336 L44,336" />
    <path d="M436,336 L456,336 L456,316" />
  </g>
  <g>
    <rect x="90" y="120" width="300" height="120" rx="14" fill="#52525B" />
    <rect x="108" y="138" width="18" height="16" rx="3" fill="#27272A" opacity="0.9" /><rect x="130" y="138" width="18" height="16" rx="3" fill="#27272A" opacity="0.9" /><rect x="152" y="138" width="18" height="16" rx="3" fill="#27272A" opacity="0.9" /><rect x="174" y="138" width="18" height="16" rx="3" fill="#27272A" opacity="0.9" /><rect x="196" y="138" width="18" height="16" rx="3" fill="#27272A" opacity="0.9" /><rect x="218" y="138" width="18" height="16" rx="3" fill="#27272A" opacity="0.9" /><rect x="240" y="138" width="18" height="16" rx="3" fill="#27272A" opacity="0.9" /><rect x="262" y="138" width="18" height="16" rx="3" fill="#27272A" opacity="0.9" /><rect x="284" y="138" width="18" height="16" rx="3" fill="#27272A" opacity="0.9" /><rect x="306" y="138" width="18" height="16" rx="3" fill="#27272A" opacity="0.9" /><rect x="328" y="138" width="18" height="16" rx="3" fill="#27272A" opacity="0.9" /><rect x="350" y="138" width="18" height="16" rx="3" fill="#27272A" opacity="0.9" /><rect x="108" y="160" width="18" height="16" rx="3" fill="#27272A" opacity="0.9" /><rect x="130" y="160" width="18" height="16" rx="3" fill="#27272A" opacity="0.9" /><rect x="152" y="160" width="18" height="16" rx="3" fill="#27272A" opacity="0.9" /><rect x="174" y="160" width="18" height="16" rx="3" fill="#22C55E" opacity="0.95" /><rect x="196" y="160" width="18" height="16" rx="3" fill="#22C55E" opacity="0.95" /><rect x="218" y="160" width="18" height="16" rx="3" fill="#22C55E" opacity="0.95" /><rect x="240" y="160" width="18" height="16" rx="3" fill="#27272A" opacity="0.9" /><rect x="262" y="160" width="18" height="16" rx="3" fill="#27272A" opacity="0.9" /><rect x="284" y="160" width="18" height="16" rx="3" fill="#27272A" opacity="0.9" /><rect x="306" y="160" width="18" height="16" rx="3" fill="#27272A" opacity="0.9" /><rect x="328" y="160" width="18" height="16" rx="3" fill="#27272A" opacity="0.9" /><rect x="350" y="160" width="18" height="16" rx="3" fill="#27272A" opacity="0.9" /><rect x="108" y="182" width="18" height="16" rx="3" fill="#27272A" opacity="0.9" /><rect x="130" y="182" width="18" height="16" rx="3" fill="#27272A" opacity="0.9" /><rect x="152" y="182" width="18" height="16" rx="3" fill="#27272A" opacity="0.9" /><rect x="174" y="182" width="18" height="16" rx="3" fill="#27272A" opacity="0.9" /><rect x="196" y="182" width="18" height="16" rx="3" fill="#27272A" opacity="0.9" /><rect x="218" y="182" width="18" height="16" rx="3" fill="#27272A" opacity="0.9" /><rect x="240" y="182" width="18" height="16" rx="3" fill="#27272A" opacity="0.9" /><rect x="262" y="182" width="18" height="16" rx="3" fill="#27272A" opacity="0.9" /><rect x="284" y="182" width="18" height="16" rx="3" fill="#27272A" opacity="0.9" /><rect x="306" y="182" width="18" height="16" rx="3" fill="#27272A" opacity="0.9" /><rect x="328" y="182" width="18" height="16" rx="3" fill="#27272A" opacity="0.9" /><rect x="350" y="182" width="18" height="16" rx="3" fill="#27272A" opacity="0.9" /><rect x="174" y="204" width="128" height="16" rx="4" fill="#27272A" opacity="0.9" /><rect x="306" y="204" width="18" height="16" rx="3" fill="#27272A" opacity="0.9" /><rect x="328" y="204" width="18" height="16" rx="3" fill="#27272A" opacity="0.9" />
  </g>
</svg>
